{
	"asset":{
		"version":"2.0",
		"generator":"Created using the official Cinema 4D glTF Exporter 1.000x284978"
	},
	"scenes":[{
		"nodes":[0]
	}],
	"nodes":[{
		"name":"CabinLow",
		"children":[1,
		2,
		3]
	},
	{
		"name":"Object001",
		"mesh":0
	},
	{
		"name":"OuterCabin_Low",
		"translation":[150.3892059326172,
		7.314009666442871,
		108.07485961914063],
		"rotation":[0.0,
		0.0,
		0.0,
		-1.0],
		"scale":[1.0,
		1.0,
		1.0],
		"mesh":1
	},
	{
		"name":"WoodPiece_Low",
		"translation":[150.3892059326172,
		7.314009666442871,
		108.07485961914063],
		"rotation":[0.0,
		0.0,
		0.0,
		-1.0],
		"scale":[1.0,
		1.0,
		1.0],
		"mesh":2
	}],
	"meshes":[{
		"name":"Object001",
		"primitives":[{
			"attributes":{
				"POSITION":1,
				"TEXCOORD_0":3,
				"NORMAL":2
			},
			"indices":0,
			"material":0
		}]
	},
	{
		"name":"OuterCabin_Low",
		"primitives":[{
			"attributes":{
				"POSITION":5,
				"TEXCOORD_0":7,
				"NORMAL":6
			},
			"indices":4,
			"material":1
		}]
	},
	{
		"name":"WoodPiece_Low",
		"primitives":[{
			"attributes":{
				"POSITION":9,
				"TEXCOORD_0":11,
				"NORMAL":10
			},
			"indices":8,
			"material":2
		}]
	}],
	"accessors":[{
		"bufferView":0,
		"type":"SCALAR",
		"componentType":5123,
		"min":[0],
		"count":216,
		"byteOffset":0,
		"max":[143]
	},
	{
		"bufferView":1,
		"type":"VEC3",
		"componentType":5126,
		"min":[-61.2621955871582,
		49.89995193481445,
		109.5107650756836],
		"count":144,
		"byteOffset":0,
		"max":[62.849300384521487,
		153.18775939941407,
		110.51078796386719]
	},
	{
		"bufferView":1,
		"type":"VEC3",
		"componentType":5126,
		"min":[-1.0,
		-1.0,
		-1.0],
		"count":144,
		"byteOffset":12,
		"max":[1.0,
		1.0,
		1.0]
	},
	{
		"bufferView":1,
		"type":"VEC2",
		"componentType":5126,
		"min":[0.2224629521369934,
		0.01187211275100708],
		"count":144,
		"byteOffset":24,
		"max":[0.9900256395339966,
		0.9392685890197754]
	},
	{
		"bufferView":2,
		"type":"SCALAR",
		"componentType":5123,
		"min":[0],
		"count":13770,
		"byteOffset":0,
		"max":[5717]
	},
	{
		"bufferView":3,
		"type":"VEC3",
		"componentType":5126,
		"min":[-321.9870300292969,
		-7.112076759338379,
		-264.1687316894531],
		"count":5718,
		"byteOffset":0,
		"max":[25.157642364501954,
		190.16542053222657,
		28.952890396118165]
	},
	{
		"bufferView":3,
		"type":"VEC3",
		"componentType":5126,
		"min":[-1.0,
		-1.0,
		-1.0],
		"count":5718,
		"byteOffset":12,
		"max":[1.0,
		1.0,
		1.0]
	},
	{
		"bufferView":3,
		"type":"VEC2",
		"componentType":5126,
		"min":[0.0,
		-0.9970335960388184],
		"count":5718,
		"byteOffset":24,
		"max":[0.9970335960388184,
		0.0]
	},
	{
		"bufferView":4,
		"type":"SCALAR",
		"componentType":5123,
		"min":[0],
		"count":222,
		"byteOffset":0,
		"max":[123]
	},
	{
		"bufferView":5,
		"type":"VEC3",
		"componentType":5126,
		"min":[-301.5152282714844,
		-2.1955807209014894,
		-244.32249450683595],
		"count":124,
		"byteOffset":0,
		"max":[2.100353956222534,
		180.94720458984376,
		0.8578662276268005]
	},
	{
		"bufferView":5,
		"type":"VEC3",
		"componentType":5126,
		"min":[-1.0,
		-1.0,
		-1.0],
		"count":124,
		"byteOffset":12,
		"max":[1.0,
		1.0,
		1.0]
	},
	{
		"bufferView":5,
		"type":"VEC2",
		"componentType":5126,
		"min":[0.002378010656684637,
		-0.997622013092041],
		"count":124,
		"byteOffset":24,
		"max":[0.8195791840553284,
		-0.0023779869079589845]
	}],
	"bufferViews":[{
		"buffer":0,
		"byteOffset":0,
		"byteLength":432,
		"target":34963
	},
	{
		"buffer":0,
		"byteOffset":432,
		"byteStride":32,
		"byteLength":4608,
		"target":34962
	},
	{
		"buffer":1,
		"byteOffset":0,
		"byteLength":27540,
		"target":34963
	},
	{
		"buffer":1,
		"byteOffset":27540,
		"byteStride":32,
		"byteLength":182976,
		"target":34962
	},
	{
		"buffer":2,
		"byteOffset":0,
		"byteLength":444,
		"target":34963
	},
	{
		"buffer":2,
		"byteOffset":444,
		"byteStride":32,
		"byteLength":3968,
		"target":34962
	}],
	"buffers":[{
		"uri":"data:application/octet-stream;base64,",
		"byteLength":5040
	},
	{
		"uri":"data:application/octet-stream;base64,",
		"byteLength":210516
	},
	{
		"uri":"data:application/octet-stream;base64,",
		"byteLength":4412
	}],
	"images":[{
		"uri":"data:image/jpeg;base64,"
	},
	{
		"uri":"data:image/jpeg;base64,"
	},
	{
		"uri":"data:image/jpeg;base64,"
	},
	{
		"uri":"data:image/jpeg;base64,"
	}],
	"samplers":[{
		"wrapS":10497,
		"magFilter":9729,
		"minFilter":9729,
		"wrapT":10497
	},
	{
		"wrapS":10497,
		"magFilter":9729,
		"minFilter":9729,
		"wrapT":10497
	},
	{
		"wrapS":10497,
		"magFilter":9729,
		"minFilter":9729,
		"wrapT":10497
	},
	{
		"wrapS":10497,
		"magFilter":9729,
		"minFilter":9729,
		"wrapT":10497
	}],
	"textures":[{
		"sampler":0,
		"source":0
	},
	{
		"sampler":1,
		"source":1
	},
	{
		"sampler":2,
		"source":2
	},
	{
		"sampler":3,
		"source":3
	}],
	"materials":[{
		"pbrMetallicRoughness":{
			"baseColorFactor":[0.5879999995231628,
			0.5879999995231628,
			0.5879999995231628,
			0.06000000238418579],
			"metallicFactor":1.0,
			"roughnessFactor":0.1
		},
		"emissiveFactor":[0.0,
		0.0,
		0.0],
		"alphaMode":"BLEND",
		"doubleSided":false,
		"name":"Solid Glass"
	},
	{
		"pbrMetallicRoughness":{
			"baseColorTexture":{
				"index":0
			},
			"baseColorFactor":[0.5879999995231628,
			0.5879999995231628,
			0.5879999995231628,
			1.0],
			"metallicFactor":1.0,
			"roughnessFactor":1.0
		},
		"normalTexture":{
			"index":1,
			"scale":1.0
		},
		"emissiveFactor":[0.0,
		0.0,
		0.0],
		"alphaMode":"OPAQUE",
		"doubleSided":false,
		"name":"OuterCabin"
	},
	{
		"pbrMetallicRoughness":{
			"baseColorTexture":{
				"index":2
			},
			"baseColorFactor":[0.5879999995231628,
			0.5879999995231628,
			0.5879999995231628,
			1.0],
			"metallicFactor":1.0,
			"roughnessFactor":1.0
		},
		"normalTexture":{
			"index":3,
			"scale":1.0
		},
		"emissiveFactor":[0.0,
		0.0,
		0.0],
		"alphaMode":"OPAQUE",
		"doubleSided":false,
		"name":"WoodPiece"
	}]
}