{
    "asset" : {
        "generator" : "Khronos glTF Blender I/O v1.2.75",
        "version" : "2.0"
    },
    "scene" : 0,
    "scenes" : [
        {
            "extras" : {
                "blosm" : {
                    "defaultLevels" : [
                        {
                            "levels" : 4,
                            "weight" : 10
                        },
                        {
                            "levels" : 5,
                            "weight" : 40
                        },
                        {
                            "levels" : 6,
                            "weight" : 10
                        }
                    ]
                },
                "uiListCollec" : [
                    {
                        "idx" : 0,
                        "val" : -0.013631047680974007,
                        "color" : [
                            0,
                            0,
                            0,
                            1
                        ]
                    },
                    {
                        "idx" : 1,
                        "val" : 0.1695117950439453,
                        "color" : [
                            1,
                            1,
                            1,
                            1
                        ]
                    }
                ],
                "glTF2ExportSettings" : {
                    "export_extras" : 1,
                    "export_format" : "GLTF_EMBEDDED",
                    "export_morph" : 0,
                    "export_skins" : 0
                }
            },
            "name" : "Scene",
            "nodes" : [
                4
            ]
        }
    ],
    "nodes" : [
        {
            "extras" : {},
            "mesh" : 0,
            "name" : "OuterCabin_Low"
        },
        {
            "extras" : {},
            "mesh" : 1,
            "name" : "WoodPiece_Low"
        },
        {
            "children" : [
                0,
                1
            ],
            "name" : "CabinLow"
        },
        {
            "extras" : {},
            "mesh" : 2,
            "name" : "Object001"
        },
        {
            "children" : [
                2,
                3
            ],
            "extras" : {},
            "name" : "Null",
            "rotation" : [
                0.7071068286895752,
                0,
                0,
                0.7071067094802856
            ],
            "scale" : [
                0.009999999776482582,
                0.009999999776482582,
                0.009999999776482582
            ]
        }
    ],
    "materials" : [
        {
            "doubleSided" : true,
            "emissiveFactor" : [
                0,
                0,
                0
            ],
            "extras" : {},
            "name" : "OuterCabin.002",
            "normalTexture" : {
                "index" : 0,
                "texCoord" : 0
            },
            "pbrMetallicRoughness" : {
                "baseColorTexture" : {
                    "index" : 1,
                    "texCoord" : 0
                },
                "metallicFactor" : 0,
                "roughnessFactor" : 0.5527864098548889
            }
        },
        {
            "doubleSided" : true,
            "emissiveFactor" : [
                0,
                0,
                0
            ],
            "extras" : {},
            "name" : "WoodPiece",
            "normalTexture" : {
                "index" : 2,
                "texCoord" : 0
            },
            "occlusionTexture" : {
                "index" : 3,
                "texCoord" : 0
            },
            "pbrMetallicRoughness" : {
                "baseColorTexture" : {
                    "index" : 4,
                    "texCoord" : 0
                },
                "metallicFactor" : 0,
                "metallicRoughnessTexture" : {
                    "index" : 3,
                    "texCoord" : 0
                }
            }
        },
        {
            "alphaCutoff" : 1,
            "alphaMode" : "MASK",
            "emissiveFactor" : [
                0,
                0,
                0
            ],
            "extras" : {},
            "name" : "Solid Glass",
            "pbrMetallicRoughness" : {
                "baseColorFactor" : [
                    0.5879999995231628,
                    0.5879999995231628,
                    0.5879999995231628,
                    1
                ],
                "metallicFactor" : 1,
                "roughnessFactor" : 0
            }
        }
    ],
    "meshes" : [
        {
            "name" : "Mesh.006",
            "primitives" : [
                {
                    "attributes" : {
                        "POSITION" : 0,
                        "NORMAL" : 1,
                        "TEXCOORD_0" : 2
                    },
                    "indices" : 3,
                    "material" : 0
                }
            ]
        },
        {
            "name" : "Mesh.007",
            "primitives" : [
                {
                    "attributes" : {
                        "POSITION" : 4,
                        "NORMAL" : 5,
                        "TEXCOORD_0" : 6
                    },
                    "indices" : 7,
                    "material" : 1
                }
            ]
        },
        {
            "name" : "Mesh.008",
            "primitives" : [
                {
                    "attributes" : {
                        "POSITION" : 8,
                        "NORMAL" : 9,
                        "TEXCOORD_0" : 10
                    },
                    "indices" : 11,
                    "material" : 2
                }
            ]
        }
    ],
    "textures" : [
        {
            "source" : 0
        },
        {
            "source" : 1
        },
        {
            "source" : 2
        },
        {
            "source" : 3
        },
        {
            "source" : 4
        }
    ],
    "images" : [
        {
            "bufferView" : 4,
            "mimeType" : "image/jpeg",
            "name" : "OuterCabin_Normal_OpenGL"
        },
        {
            "bufferView" : 5,
            "mimeType" : "image/jpeg",
            "name" : "OuterCabin_Base_Color"
        },
        {
            "bufferView" : 10,
            "mimeType" : "image/jpeg",
            "name" : "WoodPiece_Normal_OpenGL"
        },
        {
            "bufferView" : 11,
            "mimeType" : "image/png",
            "name" : "WoodPiece_Mixed_AO-WoodPiece_Roughness"
        },
        {
            "bufferView" : 12,
            "mimeType" : "image/jpeg",
            "name" : "WoodPiece_Base_Color"
        }
    ],
    "accessors" : [
        {
            "bufferView" : 0,
            "componentType" : 5126,
            "count" : 5564,
            "max" : [
                25.157642364501953,
                28.952890396118164,
                7.112076759338379
            ],
            "min" : [
                -321.9870300292969,
                -264.1687316894531,
                -190.16542053222656
            ],
            "type" : "VEC3"
        },
        {
            "bufferView" : 1,
            "componentType" : 5126,
            "count" : 5564,
            "type" : "VEC3"
        },
        {
            "bufferView" : 2,
            "componentType" : 5126,
            "count" : 5564,
            "type" : "VEC2"
        },
        {
            "bufferView" : 3,
            "componentType" : 5123,
            "count" : 13770,
            "type" : "SCALAR"
        },
        {
            "bufferView" : 6,
            "componentType" : 5126,
            "count" : 124,
            "max" : [
                2.100353956222534,
                0.8578662276268005,
                2.1955807209014893
            ],
            "min" : [
                -301.5152282714844,
                -244.32249450683594,
                -180.94720458984375
            ],
            "type" : "VEC3"
        },
        {
            "bufferView" : 7,
            "componentType" : 5126,
            "count" : 124,
            "type" : "VEC3"
        },
        {
            "bufferView" : 8,
            "componentType" : 5126,
            "count" : 124,
            "type" : "VEC2"
        },
        {
            "bufferView" : 9,
            "componentType" : 5123,
            "count" : 222,
            "type" : "SCALAR"
        },
        {
            "bufferView" : 13,
            "componentType" : 5126,
            "count" : 144,
            "max" : [
                -87.53990173339844,
                2.435931444168091,
                -42.585941314697266
            ],
            "min" : [
                -211.65139770507812,
                1.435909628868103,
                -145.87374877929688
            ],
            "type" : "VEC3"
        },
        {
            "bufferView" : 14,
            "componentType" : 5126,
            "count" : 144,
            "type" : "VEC3"
        },
        {
            "bufferView" : 15,
            "componentType" : 5126,
            "count" : 144,
            "type" : "VEC2"
        },
        {
            "bufferView" : 16,
            "componentType" : 5123,
            "count" : 216,
            "type" : "SCALAR"
        }
    ],
    "bufferViews" : [
        {
            "buffer" : 0,
            "byteLength" : 66768,
            "byteOffset" : 0
        },
        {
            "buffer" : 0,
            "byteLength" : 66768,
            "byteOffset" : 66768
        },
        {
            "buffer" : 0,
            "byteLength" : 44512,
            "byteOffset" : 133536
        },
        {
            "buffer" : 0,
            "byteLength" : 27540,
            "byteOffset" : 178048
        },
        {
            "buffer" : 0,
            "byteLength" : 638448,
            "byteOffset" : 205588
        },
        {
            "buffer" : 0,
            "byteLength" : 346480,
            "byteOffset" : 844036
        },
        {
            "buffer" : 0,
            "byteLength" : 1488,
            "byteOffset" : 1190516
        },
        {
            "buffer" : 0,
            "byteLength" : 1488,
            "byteOffset" : 1192004
        },
        {
            "buffer" : 0,
            "byteLength" : 992,
            "byteOffset" : 1193492
        },
        {
            "buffer" : 0,
            "byteLength" : 444,
            "byteOffset" : 1194484
        },
        {
            "buffer" : 0,
            "byteLength" : 559274,
            "byteOffset" : 1194928
        },
        {
            "buffer" : 0,
            "byteLength" : 799929,
            "byteOffset" : 1754204
        },
        {
            "buffer" : 0,
            "byteLength" : 313329,
            "byteOffset" : 2554136
        },
        {
            "buffer" : 0,
            "byteLength" : 1728,
            "byteOffset" : 2867468
        },
        {
            "buffer" : 0,
            "byteLength" : 1728,
            "byteOffset" : 2869196
        },
        {
            "buffer" : 0,
            "byteLength" : 1152,
            "byteOffset" : 2870924
        },
        {
            "buffer" : 0,
            "byteLength" : 432,
            "byteOffset" : 2872076
        }
    ],
    "buffers" : [
        {
            "byteLength" : 2872508,
            "uri" : "data:application/octet-stream;base64,"
        }
    ]
}
