{
    "asset" : {
        "generator" : "Khronos glTF Blender I/O v1.2.75",
        "version" : "2.0"
    },
    "scene" : 0,
    "scenes" : [
        {
            "extras" : {
                "blosm" : {
                    "defaultLevels" : [
                        {
                            "levels" : 4,
                            "weight" : 10
                        },
                        {
                            "levels" : 5,
                            "weight" : 40
                        },
                        {
                            "levels" : 6,
                            "weight" : 10
                        }
                    ]
                },
                "glTF2ExportSettings" : {
                    "export_extras" : 1,
                    "export_format" : "GLTF_EMBEDDED",
                    "export_image_format" : "JPEG",
                    "export_morph" : 0,
                    "export_skins" : 0
                }
            },
            "name" : "Scene",
            "nodes" : [
                1
            ]
        }
    ],
    "nodes" : [
        {
            "extras" : {},
            "mesh" : 0,
            "name" : "OuterCabin_Low",
            "translation" : [
                -0.020769262686371803,
                1.185009241104126,
                0.16356563568115234
            ]
        },
        {
            "children" : [
                0
            ],
            "extras" : {},
            "mesh" : 1,
            "name" : "WoodPiece_Low",
            "translation" : [
                0.0327146053314209,
                0.03729653358459473,
                0.0048961639404296875
            ]
        }
    ],
    "materials" : [
        {
            "doubleSided" : true,
            "emissiveFactor" : [
                0,
                0,
                0
            ],
            "name" : "OuterCabin.002",
            "normalTexture" : {
                "index" : 0,
                "texCoord" : 0
            },
            "pbrMetallicRoughness" : {
                "baseColorTexture" : {
                    "index" : 1,
                    "texCoord" : 0
                },
                "metallicFactor" : 0,
                "roughnessFactor" : 0.5527864098548889
            }
        },
        {
            "doubleSided" : true,
            "emissiveFactor" : [
                0,
                0,
                0
            ],
            "name" : "WoodPiece",
            "normalTexture" : {
                "index" : 2,
                "texCoord" : 0
            },
            "occlusionTexture" : {
                "index" : 3,
                "texCoord" : 0
            },
            "pbrMetallicRoughness" : {
                "baseColorTexture" : {
                    "index" : 4,
                    "texCoord" : 0
                },
                "metallicRoughnessTexture" : {
                    "index" : 3,
                    "texCoord" : 0
                }
            }
        }
    ],
    "meshes" : [
        {
            "name" : "Mesh.006",
            "primitives" : [
                {
                    "attributes" : {
                        "POSITION" : 0,
                        "NORMAL" : 1,
                        "TEXCOORD_0" : 2
                    },
                    "indices" : 3,
                    "material" : 0
                }
            ]
        },
        {
            "name" : "Mesh.007",
            "primitives" : [
                {
                    "attributes" : {
                        "POSITION" : 4,
                        "NORMAL" : 5,
                        "TEXCOORD_0" : 6
                    },
                    "indices" : 7,
                    "material" : 1
                }
            ]
        }
    ],
    "textures" : [
        {
            "source" : 0
        },
        {
            "source" : 1
        },
        {
            "source" : 2
        },
        {
            "source" : 3
        },
        {
            "source" : 4
        }
    ],
    "images" : [
        {
            "bufferView" : 4,
            "mimeType" : "image/jpeg",
            "name" : "OuterCabin_Normal_OpenGL"
        },
        {
            "bufferView" : 5,
            "mimeType" : "image/jpeg",
            "name" : "OuterCabin_Base_Color"
        },
        {
            "bufferView" : 10,
            "mimeType" : "image/jpeg",
            "name" : "WoodPiece_Normal_OpenGL"
        },
        {
            "bufferView" : 11,
            "mimeType" : "image/jpeg",
            "name" : "WoodPiece_Mixed_AO-WoodPiece_Roughness"
        },
        {
            "bufferView" : 12,
            "mimeType" : "image/jpeg",
            "name" : "WoodPiece_Base_Color"
        }
    ],
    "accessors" : [
        {
            "bufferView" : 0,
            "componentType" : 5126,
            "count" : 8563,
            "max" : [
                1.7393404245376587,
                0.7347241044044495,
                1.3639159202575684
            ],
            "min" : [
                -1.7321077585220337,
                -1.2380516529083252,
                -1.567301630973816
            ],
            "type" : "VEC3"
        },
        {
            "bufferView" : 1,
            "componentType" : 5126,
            "count" : 8563,
            "type" : "VEC3"
        },
        {
            "bufferView" : 2,
            "componentType" : 5126,
            "count" : 8563,
            "type" : "VEC2"
        },
        {
            "bufferView" : 3,
            "componentType" : 5123,
            "count" : 13770,
            "type" : "SCALAR"
        },
        {
            "bufferView" : 6,
            "componentType" : 5126,
            "count" : 204,
            "max" : [
                1.4879982471466064,
                1.827551245689392,
                1.2465312480926514
            ],
            "min" : [
                -1.5481590032577515,
                -0.0038775205612182617,
                -1.205273985862732
            ],
            "type" : "VEC3"
        },
        {
            "bufferView" : 7,
            "componentType" : 5126,
            "count" : 204,
            "type" : "VEC3"
        },
        {
            "bufferView" : 8,
            "componentType" : 5126,
            "count" : 204,
            "type" : "VEC2"
        },
        {
            "bufferView" : 9,
            "componentType" : 5123,
            "count" : 222,
            "type" : "SCALAR"
        }
    ],
    "bufferViews" : [
        {
            "buffer" : 0,
            "byteLength" : 102756,
            "byteOffset" : 0
        },
        {
            "buffer" : 0,
            "byteLength" : 102756,
            "byteOffset" : 102756
        },
        {
            "buffer" : 0,
            "byteLength" : 68504,
            "byteOffset" : 205512
        },
        {
            "buffer" : 0,
            "byteLength" : 27540,
            "byteOffset" : 274016
        },
        {
            "buffer" : 0,
            "byteLength" : 638448,
            "byteOffset" : 301556
        },
        {
            "buffer" : 0,
            "byteLength" : 346480,
            "byteOffset" : 940004
        },
        {
            "buffer" : 0,
            "byteLength" : 2448,
            "byteOffset" : 1286484
        },
        {
            "buffer" : 0,
            "byteLength" : 2448,
            "byteOffset" : 1288932
        },
        {
            "buffer" : 0,
            "byteLength" : 1632,
            "byteOffset" : 1291380
        },
        {
            "buffer" : 0,
            "byteLength" : 444,
            "byteOffset" : 1293012
        },
        {
            "buffer" : 0,
            "byteLength" : 559274,
            "byteOffset" : 1293456
        },
        {
            "buffer" : 0,
            "byteLength" : 374385,
            "byteOffset" : 1852732
        },
        {
            "buffer" : 0,
            "byteLength" : 313329,
            "byteOffset" : 2227120
        }
    ],
    "buffers" : [
        {
            "byteLength" : 2540452,
            "uri" : "data:application/octet-stream;base64,"
        }
    ]
}
