{
    "asset" : {
        "generator" : "Khronos glTF Blender I/O v1.4.40",
        "version" : "2.0"
    },
    "scene" : 0,
    "scenes" : [
        {
            "name" : "Scene",
            "nodes" : [
                0
            ]
        }
    ],
    "nodes" : [
        {
            "mesh" : 0,
            "name" : "mesh_tonedcot",
            "rotation" : [
                -0.7071068286895752,
                0,
                0,
                0.7071067094802856
            ],
            "translation" : [
                0,
                0.48500001430511475,
                0
            ]
        }
    ],
    "materials" : [
        {
            "name" : "WHITE",
            "normalTexture" : {
                "index" : 0,
                "texCoord" : 0
            },
            "pbrMetallicRoughness" : {
                "baseColorTexture" : {
                    "index" : 1,
                    "texCoord" : 0
                },
                "metallicRoughnessTexture" : {
                    "index" : 2,
                    "texCoord" : 0
                }
            }
        }
    ],
    "meshes" : [
        {
            "name" : "mesh_tonedcot",
            "primitives" : [
                {
                    "attributes" : {
                        "POSITION" : 0,
                        "NORMAL" : 1,
                        "TEXCOORD_0" : 2
                    },
                    "indices" : 3,
                    "material" : 0
                }
            ]
        }
    ],
    "textures" : [
        {
            "sampler" : 0,
            "source" : 0
        },
        {
            "sampler" : 0,
            "source" : 1
        },
        {
            "sampler" : 0,
            "source" : 2
        }
    ],
    "images" : [
        {
            "mimeType" : "image/jpeg",
            "name" : "mesh_tonedcot_blenderbake_pbr_normal",
            "uri" : "mesh_tonedcot_blenderbake_pbr_normal.jpg"
        },
        {
            "mimeType" : "image/jpeg",
            "name" : "mesh_tonedcot_blenderbake_pbr_diffuse",
            "uri" : "mesh_tonedcot_blenderbake_pbr_diffuse.jpg"
        },
        {
            "mimeType" : "image/png",
            "name" : "mesh_tonedcot_blenderbake_pbr_metalness-mesh_tonedcot_blenderbake_pbr_roughness",
            "uri" : "mesh_tonedcot_blenderbake_pbr_metalness-mesh_tonedcot_blenderbake_pbr_roughness.png"
        }
    ],
    "accessors" : [
        {
            "bufferView" : 0,
            "componentType" : 5126,
            "count" : 125232,
            "max" : [
                0.6608585119247437,
                0.36000025272369385,
                0.48500001430511475
            ],
            "min" : [
                -0.6608585119247437,
                -0.3600001931190491,
                -0.48500001430511475
            ],
            "type" : "VEC3"
        },
        {
            "bufferView" : 1,
            "componentType" : 5126,
            "count" : 125232,
            "type" : "VEC3"
        },
        {
            "bufferView" : 2,
            "componentType" : 5126,
            "count" : 125232,
            "type" : "VEC2"
        },
        {
            "bufferView" : 3,
            "componentType" : 5125,
            "count" : 125232,
            "type" : "SCALAR"
        }
    ],
    "bufferViews" : [
        {
            "buffer" : 0,
            "byteLength" : 1502784,
            "byteOffset" : 0
        },
        {
            "buffer" : 0,
            "byteLength" : 1502784,
            "byteOffset" : 1502784
        },
        {
            "buffer" : 0,
            "byteLength" : 1001856,
            "byteOffset" : 3005568
        },
        {
            "buffer" : 0,
            "byteLength" : 500928,
            "byteOffset" : 4007424
        }
    ],
    "samplers" : [
        {
            "magFilter" : 9729,
            "minFilter" : 9986
        }
    ],
    "buffers" : [
        {
            "byteLength" : 4508352,
            "uri" : "tonedcot.bin"
        }
    ]
}
