{
  "accessors": [
    {
      "bufferView": 0,
      "componentType": 5125,
      "count": 135066,
      "type": "SCALAR"
    },
    {
      "bufferView": 1,
      "componentType": 5126,
      "count": 24056,
      "max": [
        11.3484106063843,
        64.136604309082,
        11.9987497329712
      ],
      "min": [
        -11.0377130508423,
        18.0376205444336,
        -12.0862340927124
      ],
      "type": "VEC3"
    },
    {
      "bufferView": 2,
      "componentType": 5126,
      "count": 24056,
      "type": "VEC3"
    },
    {
      "bufferView": 3,
      "componentType": 5126,
      "count": 24056,
      "type": "VEC2"
    },
    {
      "bufferView": 4,
      "componentType": 5125,
      "count": 4860,
      "type": "SCALAR"
    },
    {
      "bufferView": 5,
      "componentType": 5126,
      "count": 1026,
      "max": [
        8.02133846282959,
        66.4913940429688,
        8.70224571228027
      ],
      "min": [
        -8.1755542755127,
        35.1963729858398,
        -8.65200901031494
      ],
      "type": "VEC3"
    },
    {
      "bufferView": 6,
      "componentType": 5126,
      "count": 1026,
      "type": "VEC3"
    },
    {
      "bufferView": 7,
      "componentType": 5126,
      "count": 1026,
      "type": "VEC2"
    },
    {
      "bufferView": 8,
      "componentType": 5125,
      "count": 18000,
      "type": "SCALAR"
    },
    {
      "bufferView": 9,
      "componentType": 5126,
      "count": 3481,
      "max": [
        24.0987319946289,
        63.9913940429688,
        18.9249324798584
      ],
      "min": [
        -10.1204509735107,
        42.9811134338379,
        -14.0073938369751
      ],
      "type": "VEC3"
    },
    {
      "bufferView": 10,
      "componentType": 5126,
      "count": 3481,
      "type": "VEC3"
    },
    {
      "bufferView": 11,
      "componentType": 5126,
      "count": 3481,
      "type": "VEC2"
    },
    {
      "bufferView": 12,
      "componentType": 5125,
      "count": 12000,
      "type": "SCALAR"
    },
    {
      "bufferView": 13,
      "componentType": 5126,
      "count": 2326,
      "max": [
        22.5203914642334,
        63.9913902282715,
        18.9249324798584
      ],
      "min": [
        -10.1204519271851,
        42.9811096191406,
        -14.007396697998
      ],
      "type": "VEC3"
    },
    {
      "bufferView": 14,
      "componentType": 5126,
      "count": 2326,
      "type": "VEC3"
    },
    {
      "bufferView": 15,
      "componentType": 5126,
      "count": 2326,
      "type": "VEC2"
    },
    {
      "bufferView": 16,
      "componentType": 5125,
      "count": 10800,
      "type": "SCALAR"
    },
    {
      "bufferView": 17,
      "componentType": 5126,
      "count": 2093,
      "max": [
        22.520393371582,
        63.991397857666,
        18.924934387207
      ],
      "min": [
        -10.1204519271851,
        42.9811134338379,
        -2.88665962219238
      ],
      "type": "VEC3"
    },
    {
      "bufferView": 18,
      "componentType": 5126,
      "count": 2093,
      "type": "VEC3"
    },
    {
      "bufferView": 19,
      "componentType": 5126,
      "count": 2093,
      "type": "VEC2"
    },
    {
      "bufferView": 20,
      "componentType": 5125,
      "count": 18000,
      "type": "SCALAR"
    },
    {
      "bufferView": 21,
      "componentType": 5126,
      "count": 3482,
      "max": [
        24.0987358093262,
        63.9913902282715,
        18.9249305725098
      ],
      "min": [
        -10.1204490661621,
        42.9811134338379,
        -14.0073947906494
      ],
      "type": "VEC3"
    },
    {
      "bufferView": 22,
      "componentType": 5126,
      "count": 3482,
      "type": "VEC3"
    },
    {
      "bufferView": 23,
      "componentType": 5126,
      "count": 3482,
      "type": "VEC2"
    },
    {
      "bufferView": 24,
      "componentType": 5125,
      "count": 12000,
      "type": "SCALAR"
    },
    {
      "bufferView": 25,
      "componentType": 5126,
      "count": 2324,
      "max": [
        22.520393371582,
        63.9913940429688,
        18.924934387207
      ],
      "min": [
        -10.1204528808594,
        42.9811096191406,
        -14.0073928833008
      ],
      "type": "VEC3"
    },
    {
      "bufferView": 26,
      "componentType": 5126,
      "count": 2324,
      "type": "VEC3"
    },
    {
      "bufferView": 27,
      "componentType": 5126,
      "count": 2324,
      "type": "VEC2"
    },
    {
      "bufferView": 28,
      "componentType": 5125,
      "count": 15600,
      "type": "SCALAR"
    },
    {
      "bufferView": 29,
      "componentType": 5126,
      "count": 3016,
      "max": [
        24.0987339019775,
        63.9913940429688,
        18.924934387207
      ],
      "min": [
        -10.1204509735107,
        43.1317863464355,
        -14.0073928833008
      ],
      "type": "VEC3"
    },
    {
      "bufferView": 30,
      "componentType": 5126,
      "count": 3016,
      "type": "VEC3"
    },
    {
      "bufferView": 31,
      "componentType": 5126,
      "count": 3016,
      "type": "VEC2"
    },
    {
      "bufferView": 32,
      "componentType": 5125,
      "count": 15600,
      "type": "SCALAR"
    },
    {
      "bufferView": 33,
      "componentType": 5126,
      "count": 3021,
      "max": [
        24.0987300872803,
        63.9913940429688,
        18.9249324798584
      ],
      "min": [
        -10.120454788208,
        42.9811134338379,
        -14.0073928833008
      ],
      "type": "VEC3"
    },
    {
      "bufferView": 34,
      "componentType": 5126,
      "count": 3021,
      "type": "VEC3"
    },
    {
      "bufferView": 35,
      "componentType": 5126,
      "count": 3021,
      "type": "VEC2"
    },
    {
      "bufferView": 36,
      "componentType": 5125,
      "count": 14400,
      "type": "SCALAR"
    },
    {
      "bufferView": 37,
      "componentType": 5126,
      "count": 2784,
      "max": [
        24.0987358093262,
        63.9914016723633,
        18.7646713256836
      ],
      "min": [
        -10.1204528808594,
        43.1317901611328,
        -14.007396697998
      ],
      "type": "VEC3"
    },
    {
      "bufferView": 38,
      "componentType": 5126,
      "count": 2784,
      "type": "VEC3"
    },
    {
      "bufferView": 39,
      "componentType": 5126,
      "count": 2784,
      "type": "VEC2"
    },
    {
      "bufferView": 40,
      "componentType": 5125,
      "count": 18000,
      "type": "SCALAR"
    },
    {
      "bufferView": 41,
      "componentType": 5126,
      "count": 3481,
      "max": [
        24.0987300872803,
        63.9913864135742,
        18.9249324798584
      ],
      "min": [
        -10.1204519271851,
        42.9811134338379,
        -14.0073938369751
      ],
      "type": "VEC3"
    },
    {
      "bufferView": 42,
      "componentType": 5126,
      "count": 3481,
      "type": "VEC3"
    },
    {
      "bufferView": 43,
      "componentType": 5126,
      "count": 3481,
      "type": "VEC2"
    },
    {
      "bufferView": 44,
      "componentType": 5125,
      "count": 15471,
      "type": "SCALAR"
    },
    {
      "bufferView": 45,
      "componentType": 5126,
      "count": 2727,
      "max": [
        11.7663125991821,
        23.5292816162109,
        12.499171257019
      ],
      "min": [
        -11.5028657913208,
        0.101802825927734,
        -12.4991645812988
      ],
      "type": "VEC3"
    },
    {
      "bufferView": 46,
      "componentType": 5126,
      "count": 2727,
      "type": "VEC3"
    },
    {
      "bufferView": 47,
      "componentType": 5126,
      "count": 2727,
      "type": "VEC2"
    }
  ],
  "asset": {
    "generator": "Substance Painter 7.1.0",
    "version": "2.0"
  },
  "bufferViews": [
    {
      "buffer": 0,
      "byteLength": 540264,
      "target": 34963
    },
    {
      "buffer": 0,
      "byteLength": 288672,
      "byteOffset": 540264,
      "target": 34962
    },
    {
      "buffer": 0,
      "byteLength": 288672,
      "byteOffset": 828936,
      "target": 34962
    },
    {
      "buffer": 0,
      "byteLength": 192448,
      "byteOffset": 1117608,
      "target": 34962
    },
    {
      "buffer": 0,
      "byteLength": 19440,
      "byteOffset": 1310056,
      "target": 34963
    },
    {
      "buffer": 0,
      "byteLength": 12312,
      "byteOffset": 1329496,
      "target": 34962
    },
    {
      "buffer": 0,
      "byteLength": 12312,
      "byteOffset": 1341808,
      "target": 34962
    },
    {
      "buffer": 0,
      "byteLength": 8208,
      "byteOffset": 1354120,
      "target": 34962
    },
    {
      "buffer": 0,
      "byteLength": 72000,
      "byteOffset": 1362328,
      "target": 34963
    },
    {
      "buffer": 0,
      "byteLength": 41772,
      "byteOffset": 1434328,
      "target": 34962
    },
    {
      "buffer": 0,
      "byteLength": 41772,
      "byteOffset": 1476100,
      "target": 34962
    },
    {
      "buffer": 0,
      "byteLength": 27848,
      "byteOffset": 1517872,
      "target": 34962
    },
    {
      "buffer": 0,
      "byteLength": 48000,
      "byteOffset": 1545720,
      "target": 34963
    },
    {
      "buffer": 0,
      "byteLength": 27912,
      "byteOffset": 1593720,
      "target": 34962
    },
    {
      "buffer": 0,
      "byteLength": 27912,
      "byteOffset": 1621632,
      "target": 34962
    },
    {
      "buffer": 0,
      "byteLength": 18608,
      "byteOffset": 1649544,
      "target": 34962
    },
    {
      "buffer": 0,
      "byteLength": 43200,
      "byteOffset": 1668152,
      "target": 34963
    },
    {
      "buffer": 0,
      "byteLength": 25116,
      "byteOffset": 1711352,
      "target": 34962
    },
    {
      "buffer": 0,
      "byteLength": 25116,
      "byteOffset": 1736468,
      "target": 34962
    },
    {
      "buffer": 0,
      "byteLength": 16744,
      "byteOffset": 1761584,
      "target": 34962
    },
    {
      "buffer": 0,
      "byteLength": 72000,
      "byteOffset": 1778328,
      "target": 34963
    },
    {
      "buffer": 0,
      "byteLength": 41784,
      "byteOffset": 1850328,
      "target": 34962
    },
    {
      "buffer": 0,
      "byteLength": 41784,
      "byteOffset": 1892112,
      "target": 34962
    },
    {
      "buffer": 0,
      "byteLength": 27856,
      "byteOffset": 1933896,
      "target": 34962
    },
    {
      "buffer": 0,
      "byteLength": 48000,
      "byteOffset": 1961752,
      "target": 34963
    },
    {
      "buffer": 0,
      "byteLength": 27888,
      "byteOffset": 2009752,
      "target": 34962
    },
    {
      "buffer": 0,
      "byteLength": 27888,
      "byteOffset": 2037640,
      "target": 34962
    },
    {
      "buffer": 0,
      "byteLength": 18592,
      "byteOffset": 2065528,
      "target": 34962
    },
    {
      "buffer": 0,
      "byteLength": 62400,
      "byteOffset": 2084120,
      "target": 34963
    },
    {
      "buffer": 0,
      "byteLength": 36192,
      "byteOffset": 2146520,
      "target": 34962
    },
    {
      "buffer": 0,
      "byteLength": 36192,
      "byteOffset": 2182712,
      "target": 34962
    },
    {
      "buffer": 0,
      "byteLength": 24128,
      "byteOffset": 2218904,
      "target": 34962
    },
    {
      "buffer": 0,
      "byteLength": 62400,
      "byteOffset": 2243032,
      "target": 34963
    },
    {
      "buffer": 0,
      "byteLength": 36252,
      "byteOffset": 2305432,
      "target": 34962
    },
    {
      "buffer": 0,
      "byteLength": 36252,
      "byteOffset": 2341684,
      "target": 34962
    },
    {
      "buffer": 0,
      "byteLength": 24168,
      "byteOffset": 2377936,
      "target": 34962
    },
    {
      "buffer": 0,
      "byteLength": 57600,
      "byteOffset": 2402104,
      "target": 34963
    },
    {
      "buffer": 0,
      "byteLength": 33408,
      "byteOffset": 2459704,
      "target": 34962
    },
    {
      "buffer": 0,
      "byteLength": 33408,
      "byteOffset": 2493112,
      "target": 34962
    },
    {
      "buffer": 0,
      "byteLength": 22272,
      "byteOffset": 2526520,
      "target": 34962
    },
    {
      "buffer": 0,
      "byteLength": 72000,
      "byteOffset": 2548792,
      "target": 34963
    },
    {
      "buffer": 0,
      "byteLength": 41772,
      "byteOffset": 2620792,
      "target": 34962
    },
    {
      "buffer": 0,
      "byteLength": 41772,
      "byteOffset": 2662564,
      "target": 34962
    },
    {
      "buffer": 0,
      "byteLength": 27848,
      "byteOffset": 2704336,
      "target": 34962
    },
    {
      "buffer": 0,
      "byteLength": 61884,
      "byteOffset": 2732184,
      "target": 34963
    },
    {
      "buffer": 0,
      "byteLength": 32724,
      "byteOffset": 2794068,
      "target": 34962
    },
    {
      "buffer": 0,
      "byteLength": 32724,
      "byteOffset": 2826792,
      "target": 34962
    },
    {
      "buffer": 0,
      "byteLength": 21816,
      "byteOffset": 2859516,
      "target": 34962
    }
  ],
  "buffers": [
    {
      "byteLength": 2881332,
      "uri": "cicekabbas_autosave_0_autosave_0.bin"
    }
  ],
  "images": [
    {
      "uri": "1001_baseColor.png"
    },
    {
      "uri": "1001_occlusionRoughnessMetallic.png"
    },
    {
      "uri": "1001_normal.png"
    },
    {
      "uri": "1002_baseColor.png"
    },
    {
      "uri": "1002_occlusionRoughnessMetallic.png"
    },
    {
      "uri": "1002_normal.png"
    }
  ],
  "materials": [
    {
      "alphaMode": "OPAQUE",
      "name": "1001",
      "normalTexture": {
        "index": 2
      },
      "occlusionTexture": {
        "index": 1
      },
      "pbrMetallicRoughness": {
        "baseColorTexture": {
          "index": 0
        },
        "metallicRoughnessTexture": {
          "index": 1
        }
      }
    },
    {
      "alphaMode": "OPAQUE",
      "name": "1002",
      "normalTexture": {
        "index": 5
      },
      "occlusionTexture": {
        "index": 4
      },
      "pbrMetallicRoughness": {
        "baseColorTexture": {
          "index": 3
        },
        "metallicRoughnessTexture": {
          "index": 4
        }
      }
    }
  ],
  "meshes": [
    {
      "name": "cicek",
      "primitives": [
        {
          "attributes": {
            "NORMAL": 2,
            "POSITION": 1,
            "TEXCOORD_0": 3
          },
          "indices": 0,
          "material": 0,
          "mode": 4
        }
      ]
    },
    {
      "name": "cicek",
      "primitives": [
        {
          "attributes": {
            "NORMAL": 6,
            "POSITION": 5,
            "TEXCOORD_0": 7
          },
          "indices": 4,
          "material": 1,
          "mode": 4
        }
      ]
    },
    {
      "name": "Object009",
      "primitives": [
        {
          "attributes": {
            "NORMAL": 10,
            "POSITION": 9,
            "TEXCOORD_0": 11
          },
          "indices": 8,
          "material": 1,
          "mode": 4
        }
      ]
    },
    {
      "name": "Object010",
      "primitives": [
        {
          "attributes": {
            "NORMAL": 14,
            "POSITION": 13,
            "TEXCOORD_0": 15
          },
          "indices": 12,
          "material": 1,
          "mode": 4
        }
      ]
    },
    {
      "name": "Object011",
      "primitives": [
        {
          "attributes": {
            "NORMAL": 18,
            "POSITION": 17,
            "TEXCOORD_0": 19
          },
          "indices": 16,
          "material": 1,
          "mode": 4
        }
      ]
    },
    {
      "name": "Object012",
      "primitives": [
        {
          "attributes": {
            "NORMAL": 22,
            "POSITION": 21,
            "TEXCOORD_0": 23
          },
          "indices": 20,
          "material": 1,
          "mode": 4
        }
      ]
    },
    {
      "name": "Object013",
      "primitives": [
        {
          "attributes": {
            "NORMAL": 26,
            "POSITION": 25,
            "TEXCOORD_0": 27
          },
          "indices": 24,
          "material": 1,
          "mode": 4
        }
      ]
    },
    {
      "name": "Object015",
      "primitives": [
        {
          "attributes": {
            "NORMAL": 30,
            "POSITION": 29,
            "TEXCOORD_0": 31
          },
          "indices": 28,
          "material": 1,
          "mode": 4
        }
      ]
    },
    {
      "name": "Object016",
      "primitives": [
        {
          "attributes": {
            "NORMAL": 34,
            "POSITION": 33,
            "TEXCOORD_0": 35
          },
          "indices": 32,
          "material": 1,
          "mode": 4
        }
      ]
    },
    {
      "name": "Object017",
      "primitives": [
        {
          "attributes": {
            "NORMAL": 38,
            "POSITION": 37,
            "TEXCOORD_0": 39
          },
          "indices": 36,
          "material": 1,
          "mode": 4
        }
      ]
    },
    {
      "name": "Object018",
      "primitives": [
        {
          "attributes": {
            "NORMAL": 42,
            "POSITION": 41,
            "TEXCOORD_0": 43
          },
          "indices": 40,
          "material": 1,
          "mode": 4
        }
      ]
    },
    {
      "name": "Object019",
      "primitives": [
        {
          "attributes": {
            "NORMAL": 46,
            "POSITION": 45,
            "TEXCOORD_0": 47
          },
          "indices": 44,
          "material": 0,
          "mode": 4
        }
      ]
    }
  ],
  "nodes": [
    {
      "children": [
        1,
        4,
        6,
        8,
        10,
        12,
        14,
        16,
        18,
        20,
        22
      ],
      "name": "RootNode"
    },
    {
      "children": [
        2,
        3
      ],
      "name": "cicek",
      "rotation": [
        8.14603424714733e-08,
        0.0,
        0.0,
        1.0
      ],
      "scale": [
        1.07739996910095,
        1.07739996910095,
        1.07739996910095
      ],
      "translation": [
        0.0,
        0.0564453974366188,
        2.46730658126637e-09
      ]
    },
    {
      "mesh": 0,
      "name": "cicek"
    },
    {
      "mesh": 1,
      "name": "cicek"
    },
    {
      "children": [
        5
      ],
      "name": "Object009",
      "rotation": [
        8.14603424714733e-08,
        0.0,
        0.0,
        1.0
      ],
      "scale": [
        0.867559015750885,
        0.867559015750885,
        0.867559015750885
      ],
      "translation": [
        1.5725359916687,
        9.21130084991455,
        0.776554822921753
      ]
    },
    {
      "mesh": 2,
      "name": "Object009"
    },
    {
      "children": [
        7
      ],
      "name": "Object010",
      "rotation": [
        -0.151391983032227,
        -0.320059210062027,
        -0.128676176071167,
        0.926328778266907
      ],
      "scale": [
        0.712200999259949,
        0.712200999259949,
        0.712200999259949
      ],
      "translation": [
        -6.99539709091187,
        18.3220825195313,
        2.55430674552917
      ]
    },
    {
      "mesh": 3,
      "name": "Object010"
    },
    {
      "children": [
        9
      ],
      "name": "Object011",
      "rotation": [
        -0.0183055102825165,
        -0.325579226016998,
        0.0711695775389671,
        0.942654728889465
      ],
      "scale": [
        0.712200999259949,
        0.712200999259949,
        0.712200999259949
      ],
      "translation": [
        1.81025719642639,
        15.6261949539185,
        5.36841297149658
      ]
    },
    {
      "mesh": 4,
      "name": "Object011"
    },
    {
      "children": [
        11
      ],
      "name": "Object012",
      "rotation": [
        -0.311264991760254,
        0.379311621189117,
        0.159228473901749,
        0.856669783592224
      ],
      "scale": [
        0.867559015750885,
        0.867559015750885,
        0.867559015750885
      ],
      "translation": [
        5.28065347671509,
        10.1801919937134,
        20.4303302764893
      ]
    },
    {
      "mesh": 5,
      "name": "Object012"
    },
    {
      "children": [
        13
      ],
      "name": "Object013",
      "rotation": [
        0.000282060820609331,
        -0.221306517720222,
        0.0606034100055695,
        0.973319351673126
      ],
      "scale": [
        0.712200999259949,
        0.712200999259949,
        0.712200999259949
      ],
      "translation": [
        -5.67563533782959,
        10.1410284042358,
        4.50145101547241
      ]
    },
    {
      "mesh": 6,
      "name": "Object013"
    },
    {
      "children": [
        15
      ],
      "name": "Object015",
      "rotation": [
        -0.0992343723773956,
        0.594983696937561,
        0.12522791326046,
        0.787695944309235
      ],
      "scale": [
        1.32081508636475,
        1.32081496715546,
        1.32081508636475
      ],
      "translation": [
        12.0373706817627,
        13.043683052063,
        0.0717600136995316
      ]
    },
    {
      "mesh": 7,
      "name": "Object015"
    },
    {
      "children": [
        17
      ],
      "name": "Object016",
      "rotation": [
        -0.072440966963768,
        0.950548827648163,
        0.243400380015373,
        0.17878894507885
      ],
      "scale": [
        1.32081496715546,
        1.32081496715546,
        1.32081496715546
      ],
      "translation": [
        18.5893745422363,
        17.1470775604248,
        -15.342658996582
      ]
    },
    {
      "mesh": 8,
      "name": "Object016"
    },
    {
      "children": [
        19
      ],
      "name": "Object017",
      "rotation": [
        0.00696095684543252,
        0.97034877538681,
        0.10520152002573,
        0.21750271320343
      ],
      "scale": [
        1.32081508636475,
        1.32081496715546,
        1.32081484794617
      ],
      "translation": [
        1.7217606306076,
        12.7076740264893,
        -5.76507759094238
      ]
    },
    {
      "mesh": 9,
      "name": "Object017"
    },
    {
      "children": [
        21
      ],
      "name": "Object018",
      "rotation": [
        0.0450945124030113,
        0.613412618637085,
        0.101386293768883,
        0.781928539276123
      ],
      "scale": [
        1.32081496715546,
        1.32081592082977,
        1.32081496715546
      ],
      "translation": [
        4.14275169372559,
        11.0199842453003,
        -7.34611558914185
      ]
    },
    {
      "mesh": 10,
      "name": "Object018"
    },
    {
      "children": [
        23
      ],
      "name": "Object019",
      "rotation": [
        8.14603424714733e-08,
        0.0,
        0.0,
        1.0
      ],
      "scale": [
        1.07739996910095,
        1.07739996910095,
        1.07739996910095
      ],
      "translation": [
        0.0,
        0.0564453974366188,
        2.46730658126637e-09
      ]
    },
    {
      "mesh": 11,
      "name": "Object019"
    }
  ],
  "samplers": [
    {
      "magFilter": 9729,
      "minFilter": 9985,
      "wrapS": 10497,
      "wrapT": 10497
    }
  ],
  "scene": 0,
  "scenes": [
    {
      "name": "Scene",
      "nodes": [
        0
      ]
    }
  ],
  "textures": [
    {
      "sampler": 0,
      "source": 0
    },
    {
      "sampler": 0,
      "source": 1
    },
    {
      "sampler": 0,
      "source": 2
    },
    {
      "sampler": 0,
      "source": 3
    },
    {
      "sampler": 0,
      "source": 4
    },
    {
      "sampler": 0,
      "source": 5
    }
  ]
}